<svg width="174" height="40" fill="none" xmlns="http://www.w3.org/2000/svg"><g clip-path="url(#clip0)"><circle cx="20" cy="20" r="20" fill="url(#paint0_linear)"/><rect x="9.59998" y="9.33337" width="9.6" height="9.6" rx="2.4" fill="#fff"/><rect x="9.59998" y="21.0667" width="9.6" height="9.6" rx="2.4" fill="#fff"/><rect x="21.3333" y="21.0667" width="9.6" height="9.6" rx="2.4" fill="#fff"/><path fill-rule="evenodd" clip-rule="evenodd" d="M24.4362 9.04215c.9373-.93726 2.4569-.93726 3.3942 0l3.3941 3.39415c.9372.9372.9372 2.4568 0 3.3941l-3.3941 3.3941c-.9373.9372-2.4569.9372-3.3942 0l-3.3941-3.3941c-.9372-.9373-.9372-2.4569 0-3.3941l3.3941-3.39415z" fill="#fff"/><path d="M56.2712 11.0976h4.092L67.4648 30h-3.9336l-1.584-4.5144h-7.2336L53.1296 30H49.196l7.0752-18.9024zm4.5144 11.1144l-1.6632-4.752-.6864-2.2704h-.2112l-.6864 2.2704-1.6896 4.752h4.9368zm8.0596-5.676h3.2472v1.6368h.2112c.3696-.5808.9064-1.0648 1.6104-1.452.704-.4048 1.5136-.6072 2.4288-.6072 1.2144 0 2.3144.308 3.3.924 1.0032.5984 1.7864 1.4432 2.3496 2.5344.5632 1.0912.8448 2.3232.8448 3.696 0 1.3904-.2816 2.6312-.8448 3.7224-.5632 1.0736-1.3464 1.9184-2.3496 2.5344-.9856.5984-2.0856.8976-3.3.8976-.9152 0-1.7336-.1936-2.4552-.5808-.704-.3872-1.232-.8712-1.584-1.452h-.2112l.2112 1.9008v5.412h-3.4584V16.536zm6.8904 10.692c.6512 0 1.2584-.1672 1.8216-.5016.5632-.3344 1.012-.8008 1.3464-1.3992.3344-.5984.5016-1.2848.5016-2.0592 0-.7744-.1672-1.4608-.5016-2.0592-.3344-.5984-.7832-1.056-1.3464-1.3728-.5632-.3344-1.1704-.5016-1.8216-.5016-.6336 0-1.232.1672-1.7952.5016-.5632.3168-1.012.7744-1.3464 1.3728-.3344.5984-.5016 1.2848-.5016 2.0592 0 .7744.1672 1.4608.5016 2.0592.3344.5984.7832 1.0648 1.3464 1.3992.5632.3344 1.1616.5016 1.7952.5016zm8.6834-10.692h3.2472v1.6368h.2112c.3696-.5808.9064-1.0648 1.6104-1.452.704-.4048 1.5136-.6072 2.4288-.6072 1.2144 0 2.3144.308 3.3.924 1.0032.5984 1.7864 1.4432 2.3496 2.5344.5632 1.0912.8448 2.3232.8448 3.696 0 1.3904-.2816 2.6312-.8448 3.7224-.5632 1.0736-1.3464 1.9184-2.3496 2.5344-.9856.5984-2.0856.8976-3.3.8976-.9152 0-1.7336-.1936-2.4552-.5808-.704-.3872-1.232-.8712-1.584-1.452h-.2112l.2112 1.9008v5.412H84.419V16.536zm6.8904 10.692c.6512 0 1.2584-.1672 1.8216-.5016.5632-.3344 1.012-.8008 1.3464-1.3992.3344-.5984.5016-1.2848.5016-2.0592 0-.7744-.1672-1.4608-.5016-2.0592-.3344-.5984-.7832-1.056-1.3464-1.3728-.5632-.3344-1.1704-.5016-1.8216-.5016-.6336 0-1.232.1672-1.7952.5016-.5632.3168-1.012.7744-1.3464 1.3728-.3344.5984-.5016 1.2848-.5016 2.0592 0 .7744.1672 1.4608.5016 2.0592.3344.5984.7832 1.0648 1.3464 1.3992.5632.3344 1.1616.5016 1.7952.5016z" fill="#007AFF"/><path d="M100.831 11.0976h7.392c1.056 0 2.024.22 2.904.66.898.44 1.602 1.0384 2.112 1.7952.511.7568.766 1.584.766 2.4816 0 .9504-.238 1.7776-.713 2.4816-.457.6864-1.065 1.2144-1.821 1.584v.2112c.985.352 1.768.9152 2.349 1.6896.581.7568.871 1.672.871 2.7456 0 1.0384-.281 1.9624-.844 2.772-.546.792-1.294 1.408-2.244 1.848-.933.4224-1.972.6336-3.116.6336h-7.656V11.0976zm7.128 7.7088c.775 0 1.391-.2112 1.848-.6336.476-.44.713-.9856.713-1.6368 0-.6336-.229-1.1616-.686-1.584-.44-.44-1.03-.66-1.769-.66h-3.67v4.5144h3.564zm.396 7.9464c.863 0 1.532-.22 2.007-.66.493-.4576.739-1.0472.739-1.7688s-.246-1.3112-.739-1.7688-1.197-.6864-2.112-.6864h-3.855v4.884h3.96zm13.232 3.6696c-1.619 0-2.851-.5016-3.696-1.5048-.845-1.0032-1.267-2.4024-1.267-4.1976v-8.184h3.458v7.7616c0 .9152.22 1.6368.66 2.1648.44.5104 1.021.7656 1.742.7656.986 0 1.769-.3608 2.35-1.0824.581-.7216.871-1.6368.871-2.7456v-6.864h3.459V30h-3.248v-1.6896h-.211c-.405.6512-.977 1.1704-1.716 1.5576-.721.3696-1.522.5544-2.402.5544zm12.18-15.3648c-.616 0-1.144-.22-1.584-.66-.44-.44-.66-.968-.66-1.584 0-.616.22-1.1352.66-1.5576.44-.44.968-.66 1.584-.66.616 0 1.135.22 1.557.66.44.4224.66.9416.66 1.5576 0 .616-.22 1.144-.66 1.584-.422.44-.941.66-1.557.66zm-1.743 1.4784h3.459V30h-3.459V16.536zm6.365-5.4384h3.459V30h-3.459V11.0976zm11.791 19.3248c-1.215 0-2.324-.2992-3.327-.8976-.985-.616-1.769-1.4608-2.349-2.5344-.564-1.0912-.845-2.332-.845-3.7224 0-1.3728.281-2.6048.845-3.696.58-1.0912 1.364-1.936 2.349-2.5344 1.003-.616 2.112-.924 3.327-.924.915 0 1.724.2024 2.428.6072.704.3872 1.241.8712 1.611 1.452h.211l-.211-1.9008v-5.1744h3.432V30h-3.221v-1.6104h-.211c-.352.5808-.889 1.0648-1.611 1.452-.704.3872-1.513.5808-2.428.5808zm.58-3.1944c.652 0 1.259-.1672 1.822-.5016.563-.3344 1.012-.8008 1.346-1.3992.335-.5984.502-1.2848.502-2.0592 0-.7744-.167-1.4608-.502-2.0592-.334-.5984-.783-1.056-1.346-1.3728-.563-.3344-1.17-.5016-1.822-.5016-.633 0-1.232.1672-1.795.5016-.563.3168-1.012.7744-1.346 1.3728-.335.5984-.502 1.2848-.502 2.0592 0 .7744.167 1.4608.502 2.0592.334.5984.783 1.0648 1.346 1.3992.563.3344 1.162.5016 1.795.5016zm13.77 2.1384l-5.676-12.8304h3.934l3.485 8.3688h.211l3.353-8.3688h3.854l-8.316 19.1664h-3.722l2.877-6.336z" fill="#262626"/></g><defs><linearGradient id="paint0_linear" x1="0" y1="0" x2="0" y2="40" gradientUnits="userSpaceOnUse"><stop stop-color="#00B2FF"/><stop offset="1" stop-color="#007AFF"/></linearGradient><clipPath id="clip0"><path fill="#fff" d="M0 0h174v40H0z"/></clipPath></defs></svg>