<?xml version="1.0" encoding="UTF-8"?>
<svg width="256px" height="180px" viewBox="0 0 256 180" version="1.1" xmlns="http://www.w3.org/2000/svg" xmlns:xlink="http://www.w3.org/1999/xlink">
    <title>Combined Shape</title>
    <defs>
        <linearGradient x1="50%" y1="0%" x2="50%" y2="100%" id="linearGradient-1">
            <stop stop-color="#00B0FF" offset="0%"></stop>
            <stop stop-color="#0079F5" offset="100%"></stop>
        </linearGradient>
    </defs>
    <g id="Page-1" stroke="none" stroke-width="1" fill="none" fill-rule="evenodd" fill-opacity="0.4">
        <g id="Dashboard" transform="translate(-210.000000, -108.000000)" fill="url(#linearGradient-1)" fill-rule="nonzero">
            <g id="Group" transform="translate(194.000000, 92.000000)">
                <g id="Group-3" transform="translate(16.000000, 16.000000)">
                    <path d="M72.0528036,-7.25088215e-16 L72.8981767,0.00420907387 L73.6943327,0.016804335 L74.4436842,0.0377378425 L75.1486437,0.0669616557 L75.8116239,0.104427834 L76.4350371,0.150088436 C77.7446439,0.25786241 78.792622,0.423001203 79.6893948,0.643310527 L80.0929556,0.748901198 C80.1585603,0.767149886 80.2233709,0.785723028 80.2874375,0.804619627 L80.6633124,0.921872712 L81.0237457,1.04684081 L81.3711499,1.17947599 L81.7079375,1.3197303 C81.7633181,1.34373828 81.8183569,1.36806173 81.8731041,1.39269965 L82.1984904,1.54429277 C82.2522723,1.57018456 82.3058632,1.59638883 82.3593133,1.62290456 L82.6787265,1.78572863 C82.7318145,1.81348626 82.7848622,1.84155335 82.8379199,1.86992893 C85.1194014,3.09007857 86.9099214,4.88059859 88.1300711,7.16208008 L88.2966148,7.4807085 C88.3237525,7.53392728 88.3505797,7.58723658 88.3770954,7.64068668 L88.5324442,7.96347883 C88.5577101,8.01769313 88.5826624,8.07214875 88.6073004,8.12689593 L88.7513463,8.45928001 C88.7747223,8.51539453 88.7977819,8.57190115 88.820524,8.62885012 L88.9531592,8.97625432 L89.0781273,9.33668759 L89.1953804,9.71256247 C89.214277,9.77662911 89.2328501,9.84143967 89.2510988,9.90704442 L89.3566895,10.3106052 C89.5600519,11.1383955 89.7164052,12.0950234 89.8240233,13.26734 L89.8737632,13.8718745 L89.9153326,14.5147696 C89.9215773,14.6252495 89.9274795,14.7374283 89.9330383,14.8513563 L89.9622622,15.5563158 L89.9831957,16.3056673 L89.9957909,17.1018233 L90,17.9471964 L90,162.052804 L89.9957909,162.898177 L89.9831957,163.694333 L89.9622622,164.443684 L89.9330383,165.148644 L89.8955722,165.811624 L89.8499116,166.435037 C89.7421376,167.744644 89.5769988,168.792622 89.3566895,169.689395 L89.2510988,170.092956 C89.2328501,170.15856 89.214277,170.223371 89.1953804,170.287438 L89.0781273,170.663312 L88.9531592,171.023746 L88.820524,171.37115 L88.6802697,171.707938 C88.6562617,171.763318 88.6319383,171.818357 88.6073004,171.873104 L88.4557072,172.19849 C88.4298154,172.252272 88.4036112,172.305863 88.3770954,172.359313 L88.2142714,172.678727 C88.1865137,172.731815 88.1584466,172.784862 88.1300711,172.83792 C86.9099214,175.119401 85.1194014,176.909921 82.8379199,178.130071 L82.5192915,178.296615 C82.4660727,178.323753 82.4127634,178.35058 82.3593133,178.377095 L82.0365212,178.532444 C81.9823069,178.55771 81.9278513,178.582662 81.8731041,178.6073 L81.54072,178.751346 C81.4846055,178.774722 81.4280989,178.797782 81.3711499,178.820524 L81.0237457,178.953159 L80.6633124,179.078127 L80.2874375,179.19538 C80.2233709,179.214277 80.1585603,179.23285 80.0929556,179.251099 L79.6893948,179.356689 C78.8616045,179.560052 77.9049766,179.716405 76.73266,179.824023 L76.1281255,179.873763 L75.4852304,179.915333 C75.3747505,179.921577 75.2625717,179.92748 75.1486437,179.933038 L74.4436842,179.962262 L73.6943327,179.983196 L72.8981767,179.995791 L72.0528036,180 L17.9471964,180 L17.1018233,179.995791 L16.3056673,179.983196 L15.5563158,179.962262 L14.8513563,179.933038 L14.1883761,179.895572 L13.5649629,179.849912 C12.2553561,179.742138 11.207378,179.576999 10.3106052,179.356689 L9.90704442,179.251099 C9.84143967,179.23285 9.77662911,179.214277 9.71256247,179.19538 L9.33668759,179.078127 L8.97625432,178.953159 L8.62885012,178.820524 L8.29206247,178.68027 C8.23668188,178.656262 8.18164312,178.631938 8.12689593,178.6073 L7.80150961,178.455707 C7.74772767,178.429815 7.69413678,178.403611 7.64068668,178.377095 L7.32127348,178.214271 C7.2681855,178.186514 7.21513778,178.158447 7.16208008,178.130071 C4.88059859,176.909921 3.09007857,175.119401 1.86992893,172.83792 L1.70338518,172.519292 C1.6762475,172.466073 1.64942029,172.412763 1.62290456,172.359313 L1.4675558,172.036521 C1.44228995,171.982307 1.41733756,171.927851 1.39269965,171.873104 L1.24865375,171.54072 C1.2252777,171.484605 1.20221811,171.428099 1.17947599,171.37115 L1.04684081,171.023746 L0.921872712,170.663312 L0.804619627,170.287438 C0.785723028,170.223371 0.767149886,170.15856 0.748901198,170.092956 L0.643310527,169.689395 C0.439948074,168.861604 0.283594831,167.904977 0.175976665,166.73266 L0.126236828,166.128126 L0.0846674454,165.48523 C0.0784227495,165.374751 0.0725204866,165.262572 0.0669616557,165.148644 L0.0377378425,164.443684 L0.016804335,163.694333 L0.00420907387,162.898177 L-4.83392144e-16,162.052804 L0.00105326723,17.518207 L0.00946142731,16.697744 C0.0115609704,16.5650681 0.0140089392,16.4343926 0.016804335,16.3056673 L0.0377378425,15.5563158 L0.0669616557,14.8513563 L0.104427834,14.1883761 L0.150088436,13.5649629 C0.25786241,12.2553561 0.423001203,11.207378 0.643310527,10.3106052 L0.748901198,9.90704442 C0.767149886,9.84143967 0.785723028,9.77662911 0.804619627,9.71256247 L0.921872712,9.33668759 L1.04684081,8.97625432 L1.17947599,8.62885012 L1.3197303,8.29206247 C1.34373828,8.23668188 1.36806173,8.18164312 1.39269965,8.12689593 L1.54429277,7.80150961 C1.57018456,7.74772767 1.59638883,7.69413678 1.62290456,7.64068668 L1.78572863,7.32127348 C1.81348626,7.2681855 1.84155335,7.21513778 1.86992893,7.16208008 C3.09007857,4.88059859 4.88059859,3.09007857 7.16208008,1.86992893 L7.4807085,1.70338518 C7.53392728,1.6762475 7.58723658,1.64942029 7.64068668,1.62290456 L7.96347883,1.4675558 C8.01769313,1.44228995 8.07214875,1.41733756 8.12689593,1.39269965 L8.45928001,1.24865375 C8.51539453,1.2252777 8.57190115,1.20221811 8.62885012,1.17947599 L8.97625432,1.04684081 L9.33668759,0.921872712 L9.71256247,0.804619627 C9.77662911,0.785723028 9.84143967,0.767149886 9.90704442,0.748901198 L10.3106052,0.643310527 C11.1383955,0.439948074 12.0950234,0.283594831 13.26734,0.175976665 L13.8718745,0.126236828 L14.5147696,0.0846674454 C14.6252495,0.0784227495 14.7374283,0.0725204866 14.8513563,0.0669616557 L15.5563158,0.0377378425 L16.3056673,0.016804335 L17.1018233,0.00420907387 L17.9471964,-7.25088215e-16 L72.0528036,-7.25088215e-16 Z M178.052804,-7.25088215e-16 L178.898177,0.00420907387 L179.694333,0.016804335 L180.443684,0.0377378425 L181.148644,0.0669616557 L181.811624,0.104427834 L182.435037,0.150088436 C183.744644,0.25786241 184.792622,0.423001203 185.689395,0.643310527 L186.092956,0.748901198 C186.15856,0.767149886 186.223371,0.785723028 186.287438,0.804619627 L186.663312,0.921872712 L187.023746,1.04684081 L187.37115,1.17947599 L187.707938,1.3197303 C187.763318,1.34373828 187.818357,1.36806173 187.873104,1.39269965 L188.19849,1.54429277 C188.252272,1.57018456 188.305863,1.59638883 188.359313,1.62290456 L188.678727,1.78572863 C188.731815,1.81348626 188.784862,1.84155335 188.83792,1.86992893 C191.119401,3.09007857 192.909921,4.88059859 194.130071,7.16208008 L194.296615,7.4807085 C194.323753,7.53392728 194.35058,7.58723658 194.377095,7.64068668 L194.532444,7.96347883 C194.55771,8.01769313 194.582662,8.07214875 194.6073,8.12689593 L194.751346,8.45928001 C194.774722,8.51539453 194.797782,8.57190115 194.820524,8.62885012 L194.953159,8.97625432 L195.078127,9.33668759 L195.19538,9.71256247 C195.214277,9.77662911 195.23285,9.84143967 195.251099,9.90704442 L195.356689,10.3106052 C195.560052,11.1383955 195.716405,12.0950234 195.824023,13.26734 L195.873763,13.8718745 L195.915333,14.5147696 C195.921577,14.6252495 195.92748,14.7374283 195.933038,14.8513563 L195.962262,15.5563158 L195.983196,16.3056673 L195.995791,17.1018233 L196,17.9471964 L196,162.052804 L195.995791,162.898177 L195.983196,163.694333 L195.962262,164.443684 L195.933038,165.148644 L195.895572,165.811624 L195.849912,166.435037 C195.742138,167.744644 195.576999,168.792622 195.356689,169.689395 L195.251099,170.092956 C195.23285,170.15856 195.214277,170.223371 195.19538,170.287438 L195.078127,170.663312 L194.953159,171.023746 L194.820524,171.37115 L194.68027,171.707938 C194.656262,171.763318 194.631938,171.818357 194.6073,171.873104 L194.455707,172.19849 C194.429815,172.252272 194.403611,172.305863 194.377095,172.359313 L194.214271,172.678727 C194.186514,172.731815 194.158447,172.784862 194.130071,172.83792 C192.909921,175.119401 191.119401,176.909921 188.83792,178.130071 L188.519292,178.296615 C188.466073,178.323753 188.412763,178.35058 188.359313,178.377095 L188.036521,178.532444 C187.982307,178.55771 187.927851,178.582662 187.873104,178.6073 L187.54072,178.751346 C187.484605,178.774722 187.428099,178.797782 187.37115,178.820524 L187.023746,178.953159 L186.663312,179.078127 L186.287438,179.19538 C186.223371,179.214277 186.15856,179.23285 186.092956,179.251099 L185.689395,179.356689 C184.861604,179.560052 183.904977,179.716405 182.73266,179.824023 L182.128126,179.873763 L181.48523,179.915333 C181.374751,179.921577 181.262572,179.92748 181.148644,179.933038 L180.443684,179.962262 L179.694333,179.983196 L178.898177,179.995791 L178.052804,180 L123.947196,180 L123.101823,179.995791 L122.305667,179.983196 L121.556316,179.962262 L120.851356,179.933038 L120.188376,179.895572 L119.564963,179.849912 C118.255356,179.742138 117.207378,179.576999 116.310605,179.356689 L115.907044,179.251099 C115.84144,179.23285 115.776629,179.214277 115.712562,179.19538 L115.336688,179.078127 L114.976254,178.953159 L114.62885,178.820524 L114.292062,178.68027 C114.236682,178.656262 114.181643,178.631938 114.126896,178.6073 L113.80151,178.455707 C113.747728,178.429815 113.694137,178.403611 113.640687,178.377095 L113.321273,178.214271 C113.268185,178.186514 113.215138,178.158447 113.16208,178.130071 C110.880599,176.909921 109.090079,175.119401 107.869929,172.83792 L107.703385,172.519292 C107.676247,172.466073 107.64942,172.412763 107.622905,172.359313 L107.467556,172.036521 C107.44229,171.982307 107.417338,171.927851 107.3927,171.873104 L107.248654,171.54072 C107.225278,171.484605 107.202218,171.428099 107.179476,171.37115 L107.046841,171.023746 L106.921873,170.663312 L106.80462,170.287438 C106.785723,170.223371 106.76715,170.15856 106.748901,170.092956 L106.643311,169.689395 C106.439948,168.861604 106.283595,167.904977 106.175977,166.73266 L106.126237,166.128126 L106.084667,165.48523 C106.078423,165.374751 106.07252,165.262572 106.066962,165.148644 L106.037738,164.443684 L106.016804,163.694333 L106.004209,162.898177 L106,162.052804 L106.001053,17.518207 L106.009461,16.697744 C106.011561,16.5650681 106.014009,16.4343926 106.016804,16.3056673 L106.037738,15.5563158 L106.066962,14.8513563 L106.104428,14.1883761 L106.150088,13.5649629 C106.257862,12.2553561 106.423001,11.207378 106.643311,10.3106052 L106.748901,9.90704442 C106.76715,9.84143967 106.785723,9.77662911 106.80462,9.71256247 L106.921873,9.33668759 L107.046841,8.97625432 L107.179476,8.62885012 L107.31973,8.29206247 C107.343738,8.23668188 107.368062,8.18164312 107.3927,8.12689593 L107.544293,7.80150961 C107.570185,7.74772767 107.596389,7.69413678 107.622905,7.64068668 L107.785729,7.32127348 C107.813486,7.2681855 107.841553,7.21513778 107.869929,7.16208008 C109.090079,4.88059859 110.880599,3.09007857 113.16208,1.86992893 L113.480708,1.70338518 C113.533927,1.6762475 113.587237,1.64942029 113.640687,1.62290456 L113.963479,1.4675558 C114.017693,1.44228995 114.072149,1.41733756 114.126896,1.39269965 L114.45928,1.24865375 C114.515395,1.2252777 114.571901,1.20221811 114.62885,1.17947599 L114.976254,1.04684081 L115.336688,0.921872712 L115.712562,0.804619627 C115.776629,0.785723028 115.84144,0.767149886 115.907044,0.748901198 L116.310605,0.643310527 C117.138396,0.439948074 118.095023,0.283594831 119.26734,0.175976665 L119.871874,0.126236828 L120.51477,0.0846674454 C120.625249,0.0784227495 120.737428,0.0725204866 120.851356,0.0669616557 L121.556316,0.0377378425 L122.305667,0.016804335 L123.101823,0.00420907387 L123.947196,-7.25088215e-16 L178.052804,-7.25088215e-16 Z M284.052804,-7.25088215e-16 L284.898177,0.00420907387 L285.694333,0.016804335 L286.443684,0.0377378425 L287.148644,0.0669616557 L287.811624,0.104427834 L288.435037,0.150088436 C289.744644,0.25786241 290.792622,0.423001203 291.689395,0.643310527 L292.092956,0.748901198 C292.15856,0.767149886 292.223371,0.785723028 292.287438,0.804619627 L292.663312,0.921872712 L293.023746,1.04684081 L293.37115,1.17947599 L293.707938,1.3197303 C293.763318,1.34373828 293.818357,1.36806173 293.873104,1.39269965 L294.19849,1.54429277 C294.252272,1.57018456 294.305863,1.59638883 294.359313,1.62290456 L294.678727,1.78572863 C294.731815,1.81348626 294.784862,1.84155335 294.83792,1.86992893 C297.119401,3.09007857 298.909921,4.88059859 300.130071,7.16208008 L300.296615,7.4807085 C300.323753,7.53392728 300.35058,7.58723658 300.377095,7.64068668 L300.532444,7.96347883 C300.55771,8.01769313 300.582662,8.07214875 300.6073,8.12689593 L300.751346,8.45928001 C300.774722,8.51539453 300.797782,8.57190115 300.820524,8.62885012 L300.953159,8.97625432 L301.078127,9.33668759 L301.19538,9.71256247 C301.214277,9.77662911 301.23285,9.84143967 301.251099,9.90704442 L301.356689,10.3106052 C301.560052,11.1383955 301.716405,12.0950234 301.824023,13.26734 L301.873763,13.8718745 L301.915333,14.5147696 C301.921577,14.6252495 301.92748,14.7374283 301.933038,14.8513563 L301.962262,15.5563158 L301.983196,16.3056673 L301.995791,17.1018233 L302,17.9471964 L302,162.052804 L301.995791,162.898177 L301.983196,163.694333 L301.962262,164.443684 L301.933038,165.148644 L301.895572,165.811624 L301.849912,166.435037 C301.742138,167.744644 301.576999,168.792622 301.356689,169.689395 L301.251099,170.092956 C301.23285,170.15856 301.214277,170.223371 301.19538,170.287438 L301.078127,170.663312 L300.953159,171.023746 L300.820524,171.37115 L300.68027,171.707938 C300.656262,171.763318 300.631938,171.818357 300.6073,171.873104 L300.455707,172.19849 C300.429815,172.252272 300.403611,172.305863 300.377095,172.359313 L300.214271,172.678727 C300.186514,172.731815 300.158447,172.784862 300.130071,172.83792 C298.909921,175.119401 297.119401,176.909921 294.83792,178.130071 L294.519292,178.296615 C294.466073,178.323753 294.412763,178.35058 294.359313,178.377095 L294.036521,178.532444 C293.982307,178.55771 293.927851,178.582662 293.873104,178.6073 L293.54072,178.751346 C293.484605,178.774722 293.428099,178.797782 293.37115,178.820524 L293.023746,178.953159 L292.663312,179.078127 L292.287438,179.19538 C292.223371,179.214277 292.15856,179.23285 292.092956,179.251099 L291.689395,179.356689 C290.861604,179.560052 289.904977,179.716405 288.73266,179.824023 L288.128126,179.873763 L287.48523,179.915333 C287.374751,179.921577 287.262572,179.92748 287.148644,179.933038 L286.443684,179.962262 L285.694333,179.983196 L284.898177,179.995791 L284.052804,180 L229.947196,180 L229.101823,179.995791 L228.305667,179.983196 L227.556316,179.962262 L226.851356,179.933038 L226.188376,179.895572 L225.564963,179.849912 C224.255356,179.742138 223.207378,179.576999 222.310605,179.356689 L221.907044,179.251099 C221.84144,179.23285 221.776629,179.214277 221.712562,179.19538 L221.336688,179.078127 L220.976254,178.953159 L220.62885,178.820524 L220.292062,178.68027 C220.236682,178.656262 220.181643,178.631938 220.126896,178.6073 L219.80151,178.455707 C219.747728,178.429815 219.694137,178.403611 219.640687,178.377095 L219.321273,178.214271 C219.268185,178.186514 219.215138,178.158447 219.16208,178.130071 C216.880599,176.909921 215.090079,175.119401 213.869929,172.83792 L213.703385,172.519292 C213.676247,172.466073 213.64942,172.412763 213.622905,172.359313 L213.467556,172.036521 C213.44229,171.982307 213.417338,171.927851 213.3927,171.873104 L213.248654,171.54072 C213.225278,171.484605 213.202218,171.428099 213.179476,171.37115 L213.046841,171.023746 L212.921873,170.663312 L212.80462,170.287438 C212.785723,170.223371 212.76715,170.15856 212.748901,170.092956 L212.643311,169.689395 C212.439948,168.861604 212.283595,167.904977 212.175977,166.73266 L212.126237,166.128126 L212.084667,165.48523 C212.078423,165.374751 212.07252,165.262572 212.066962,165.148644 L212.037738,164.443684 L212.016804,163.694333 L212.004209,162.898177 L212,162.052804 L212.001053,17.518207 L212.009461,16.697744 C212.011561,16.5650681 212.014009,16.4343926 212.016804,16.3056673 L212.037738,15.5563158 L212.066962,14.8513563 L212.104428,14.1883761 L212.150088,13.5649629 C212.257862,12.2553561 212.423001,11.207378 212.643311,10.3106052 L212.748901,9.90704442 C212.76715,9.84143967 212.785723,9.77662911 212.80462,9.71256247 L212.921873,9.33668759 L213.046841,8.97625432 L213.179476,8.62885012 L213.31973,8.29206247 C213.343738,8.23668188 213.368062,8.18164312 213.3927,8.12689593 L213.544293,7.80150961 C213.570185,7.74772767 213.596389,7.69413678 213.622905,7.64068668 L213.785729,7.32127348 C213.813486,7.2681855 213.841553,7.21513778 213.869929,7.16208008 C215.090079,4.88059859 216.880599,3.09007857 219.16208,1.86992893 L219.480708,1.70338518 C219.533927,1.6762475 219.587237,1.64942029 219.640687,1.62290456 L219.963479,1.4675558 C220.017693,1.44228995 220.072149,1.41733756 220.126896,1.39269965 L220.45928,1.24865375 C220.515395,1.2252777 220.571901,1.20221811 220.62885,1.17947599 L220.976254,1.04684081 L221.336688,0.921872712 L221.712562,0.804619627 C221.776629,0.785723028 221.84144,0.767149886 221.907044,0.748901198 L222.310605,0.643310527 C223.138396,0.439948074 224.095023,0.283594831 225.26734,0.175976665 L225.871874,0.126236828 L226.51477,0.0846674454 C226.625249,0.0784227495 226.737428,0.0725204866 226.851356,0.0669616557 L227.556316,0.0377378425 L228.305667,0.016804335 L229.101823,0.00420907387 L229.947196,-7.25088215e-16 L284.052804,-7.25088215e-16 Z M72.4944552,2 L17.9471964,2 L17.0782743,2.00397948 L16.2651942,2.0161679 L15.5045919,2.0369402 L14.7931033,2.06667132 L14.1273642,2.10573622 C14.0200333,2.11304569 13.9144684,2.12075968 13.8105995,2.12888601 L13.2071769,2.18265461 C11.2598695,2.37879355 9.93488162,2.74611831 8.67152203,3.3471203 L8.29380231,3.53449371 C8.23097027,3.56691183 8.16815213,3.59992976 8.10527779,3.63355532 C6.17233326,4.66730537 4.66730537,6.17233326 3.63355532,8.10527779 L3.53449371,8.29380231 L3.3471203,8.67152203 C2.74611831,9.93488162 2.37879355,11.2598695 2.18265461,13.2071769 L2.12888601,13.8105995 C2.12075968,13.9144684 2.11304569,14.0200333 2.10573622,14.1273642 L2.06667132,14.7931033 L2.0369402,15.5045919 L2.0161679,16.2651942 L2.00397948,17.0782743 C2.00264257,17.2183477 2.0016477,17.3607478 2.00098706,17.5055448 L2,162.052804 C2,162.352125 2.00130566,162.641579 2.00397948,162.921726 L2.0161679,163.734806 L2.0369402,164.495408 L2.06667132,165.206897 L2.10573622,165.872636 C2.11304569,165.979967 2.12075968,166.085532 2.12888601,166.189401 L2.18265461,166.792823 C2.37879355,168.740131 2.74611831,170.065118 3.3471203,171.328478 L3.53449371,171.706198 C3.56691183,171.76903 3.59992976,171.831848 3.63355532,171.894722 C4.66730537,173.827667 6.17233326,175.332695 8.10527779,176.366445 L8.29380231,176.465506 L8.67152203,176.65288 C9.93488162,177.253882 11.2598695,177.621206 13.2071769,177.817345 L13.8105995,177.871114 C13.9144684,177.87924 14.0200333,177.886954 14.1273642,177.894264 L14.7931033,177.933329 L15.5045919,177.96306 L16.2651942,177.983832 L17.0782743,177.996021 L17.9471964,178 L72.0528036,178 C72.3521251,178 72.6415789,178 72.9217257,177.996021 L73.7348058,177.983832 L74.4954081,177.96306 L75.2068967,177.933329 L75.8726358,177.894264 C75.9799667,177.886954 76.0855316,177.87924 76.1894005,177.871114 L76.7928231,177.817345 C78.7401305,177.621206 80.0651184,177.253882 81.328478,176.65288 L81.7061977,176.465506 C81.7690297,176.433088 81.8318479,176.40007 81.8947222,176.366445 C83.8276667,175.332695 85.3326946,173.827667 86.3664447,171.894722 L86.4655063,171.706198 L86.6528797,171.328478 C87.2538817,170.065118 87.6212064,168.740131 87.8173454,166.792823 L87.871114,166.189401 C87.8792403,166.085532 87.8869543,165.979967 87.8942638,165.872636 L87.9333287,165.206897 L87.9630598,164.495408 L87.9838321,163.734806 L87.9960205,162.921726 L88,162.052804 L88,17.9471964 C88,17.6478749 87.9986943,17.3584211 87.9960205,17.0782743 L87.9838321,16.2651942 L87.9630598,15.5045919 L87.9333287,14.7931033 L87.8942638,14.1273642 C87.8869543,14.0200333 87.8792403,13.9144684 87.871114,13.8105995 L87.8173454,13.2071769 C87.6212064,11.2598695 87.2538817,9.93488162 86.6528797,8.67152203 L86.4655063,8.29380231 C86.4330882,8.23097027 86.4000702,8.16815213 86.3664447,8.10527779 C85.3326946,6.17233326 83.8276667,4.66730537 81.8947222,3.63355532 L81.7061977,3.53449371 L81.328478,3.3471203 C80.0651184,2.74611831 78.7401305,2.37879355 76.7928231,2.18265461 L76.1894005,2.12888601 C76.0855316,2.12075968 75.9799667,2.11304569 75.8726358,2.10573622 L75.2068967,2.06667132 L74.4954081,2.0369402 L73.7348058,2.0161679 L72.9217257,2.00397948 C72.7816523,2.00264257 72.6392522,2 72.4944552,2 Z M178.494455,2 L123.947196,2 L123.078274,2.00397948 L122.265194,2.0161679 L121.504592,2.0369402 L120.793103,2.06667132 L120.127364,2.10573622 C120.020033,2.11304569 119.914468,2.12075968 119.810599,2.12888601 L119.207177,2.18265461 C117.259869,2.37879355 115.934882,2.74611831 114.671522,3.3471203 L114.293802,3.53449371 C114.23097,3.56691183 114.168152,3.59992976 114.105278,3.63355532 C112.172333,4.66730537 110.667305,6.17233326 109.633555,8.10527779 L109.534494,8.29380231 L109.34712,8.67152203 C108.746118,9.93488162 108.378794,11.2598695 108.182655,13.2071769 L108.128886,13.8105995 C108.12076,13.9144684 108.113046,14.0200333 108.105736,14.1273642 L108.066671,14.7931033 L108.03694,15.5045919 L108.016168,16.2651942 L108.003979,17.0782743 C108.002643,17.2183477 108.000987,17.3607478 108.000987,17.5055448 L108.000987,162.494455 L108.009386,163.358922 C108.011517,163.498124 108.014019,163.634939 108.016901,163.769444 L108.038817,164.549355 L108.070255,165.277484 C108.082368,165.511971 108.096135,165.738439 108.111626,165.957499 L108.163337,166.593071 C108.343895,168.53922 108.686148,169.872065 109.248542,171.116004 L109.433527,171.506484 C109.497673,171.636066 109.564326,171.765275 109.633555,171.894722 C110.667305,173.827667 112.172333,175.332695 114.105278,176.366445 L114.293802,176.465506 L114.671522,176.65288 C115.934882,177.253882 117.259869,177.621206 119.207177,177.817345 L119.810599,177.871114 C119.914468,177.87924 120.020033,177.886954 120.127364,177.894264 L120.793103,177.933329 L121.504592,177.96306 L122.265194,177.983832 L123.078274,177.996021 L123.947196,178 L178.052804,178 C178.352125,178 178.641579,178 178.921726,177.996021 L179.734806,177.983832 L180.495408,177.96306 L181.206897,177.933329 L181.872636,177.894264 C181.979967,177.886954 182.085532,177.87924 182.189401,177.871114 L182.792823,177.817345 C184.740131,177.621206 186.065118,177.253882 187.328478,176.65288 L187.706198,176.465506 C187.76903,176.433088 187.831848,176.40007 187.894722,176.366445 C189.827667,175.332695 191.332695,173.827667 192.366445,171.894722 L192.465506,171.706198 L192.65288,171.328478 C193.253882,170.065118 193.621206,168.740131 193.817345,166.792823 L193.871114,166.189401 C193.87924,166.085532 193.886954,165.979967 193.894264,165.872636 L193.933329,165.206897 L193.96306,164.495408 L193.983832,163.734806 L193.996021,162.921726 L194,162.052804 L194,17.9471964 C194,17.6478749 193.998694,17.3584211 193.996021,17.0782743 L193.983832,16.2651942 L193.96306,15.5045919 L193.933329,14.7931033 L193.894264,14.1273642 C193.886954,14.0200333 193.87924,13.9144684 193.871114,13.8105995 L193.817345,13.2071769 C193.621206,11.2598695 193.253882,9.93488162 192.65288,8.67152203 L192.465506,8.29380231 C192.433088,8.23097027 192.40007,8.16815213 192.366445,8.10527779 C191.332695,6.17233326 189.827667,4.66730537 187.894722,3.63355532 L187.706198,3.53449371 L187.328478,3.3471203 C186.065118,2.74611831 184.740131,2.37879355 182.792823,2.18265461 L182.189401,2.12888601 C182.085532,2.12075968 181.979967,2.11304569 181.872636,2.10573622 L181.206897,2.06667132 L180.495408,2.0369402 L179.734806,2.0161679 L178.921726,2.00397948 C178.781652,2.00264257 178.639252,2 178.494455,2 Z M284.494455,2 L229.947196,2 L229.078274,2.00397948 L228.265194,2.0161679 L227.504592,2.0369402 L226.793103,2.06667132 L226.127364,2.10573622 C226.020033,2.11304569 225.914468,2.12075968 225.810599,2.12888601 L225.207177,2.18265461 C223.259869,2.37879355 221.934882,2.74611831 220.671522,3.3471203 L220.293802,3.53449371 C220.23097,3.56691183 220.168152,3.59992976 220.105278,3.63355532 C218.172333,4.66730537 216.667305,6.17233326 215.633555,8.10527779 L215.534494,8.29380231 L215.34712,8.67152203 C214.746118,9.93488162 214.378794,11.2598695 214.182655,13.2071769 L214.128886,13.8105995 C214.12076,13.9144684 214.113046,14.0200333 214.105736,14.1273642 L214.066671,14.7931033 L214.03694,15.5045919 L214.016168,16.2651942 L214.003979,17.0782743 C214.002643,17.2183477 214.000987,17.3607478 214.000987,17.5055448 L214.000987,162.494455 L214.009386,163.358922 C214.011517,163.498124 214.014019,163.634939 214.016901,163.769444 L214.038817,164.549355 L214.070255,165.277484 C214.082368,165.511971 214.096135,165.738439 214.111626,165.957499 L214.163337,166.593071 C214.343895,168.53922 214.686148,169.872065 215.248542,171.116004 L215.433527,171.506484 C215.497673,171.636066 215.564326,171.765275 215.633555,171.894722 C216.667305,173.827667 218.172333,175.332695 220.105278,176.366445 L220.293802,176.465506 L220.671522,176.65288 C221.934882,177.253882 223.259869,177.621206 225.207177,177.817345 L225.810599,177.871114 C225.914468,177.87924 226.020033,177.886954 226.127364,177.894264 L226.793103,177.933329 L227.504592,177.96306 L228.265194,177.983832 L229.078274,177.996021 L229.947196,178 L284.052804,178 C284.352125,178 284.641579,178 284.921726,177.996021 L285.734806,177.983832 L286.495408,177.96306 L287.206897,177.933329 L287.872636,177.894264 C287.979967,177.886954 288.085532,177.87924 288.189401,177.871114 L288.792823,177.817345 C290.740131,177.621206 292.065118,177.253882 293.328478,176.65288 L293.706198,176.465506 C293.76903,176.433088 293.831848,176.40007 293.894722,176.366445 C295.827667,175.332695 297.332695,173.827667 298.366445,171.894722 L298.465506,171.706198 L298.65288,171.328478 C299.253882,170.065118 299.621206,168.740131 299.817345,166.792823 L299.871114,166.189401 C299.87924,166.085532 299.886954,165.979967 299.894264,165.872636 L299.933329,165.206897 L299.96306,164.495408 L299.983832,163.734806 L299.996021,162.921726 L300,162.052804 L300,17.9471964 C300,17.6478749 299.998694,17.3584211 299.996021,17.0782743 L299.983832,16.2651942 L299.96306,15.5045919 L299.933329,14.7931033 L299.894264,14.1273642 C299.886954,14.0200333 299.87924,13.9144684 299.871114,13.8105995 L299.817345,13.2071769 C299.621206,11.2598695 299.253882,9.93488162 298.65288,8.67152203 L298.465506,8.29380231 C298.433088,8.23097027 298.40007,8.16815213 298.366445,8.10527779 C297.332695,6.17233326 295.827667,4.66730537 293.894722,3.63355532 L293.706198,3.53449371 L293.328478,3.3471203 C292.065118,2.74611831 290.740131,2.37879355 288.792823,2.18265461 L288.189401,2.12888601 C288.085532,2.12075968 287.979967,2.11304569 287.872636,2.10573622 L287.206897,2.06667132 L286.495408,2.0369402 L285.734806,2.0161679 L284.921726,2.00397948 C284.781652,2.00264257 284.639252,2 284.494455,2 Z" id="Combined-Shape"></path>
                </g>
            </g>
        </g>
    </g>
</svg>