<?xml version="1.0" encoding="UTF-8"?>
<svg width="36px" height="36px" viewBox="0 0 36 36" version="1.1" xmlns="http://www.w3.org/2000/svg" xmlns:xlink="http://www.w3.org/1999/xlink">
    <title>create-app-icon</title>
    <defs>
        <linearGradient x1="50%" y1="0%" x2="50%" y2="100%" id="linearGradient-1">
            <stop stop-color="#00B0FF" offset="0%"></stop>
            <stop stop-color="#0079F5" offset="100%"></stop>
        </linearGradient>
    </defs>
    <g id="Page-1" stroke="none" stroke-width="1" fill="none" fill-rule="evenodd">
        <g id="Dashboard" transform="translate(-210.000000, -320.000000)" fill="url(#linearGradient-1)" fill-rule="nonzero">
            <g id="Group" transform="translate(194.000000, 92.000000)">
                <g id="Group-13" transform="translate(16.000000, 228.000000)">
                    <path d="M26.0860237,0.00132522612 L26.7627221,0.0118934801 L27.3811845,0.0329442365 L27.9459139,0.0643880153 C28.0358079,0.0704897592 28.1236506,0.0770208173 28.2095359,0.0839793256 L28.7021087,0.130844863 L29.1522057,0.187879723 L29.5643299,0.254994425 C30.2878342,0.38722322 30.8425943,0.569820092 31.3534721,0.800303838 L31.6285313,0.930756442 L31.8993894,1.07061779 C33.2056394,1.76920793 34.2307921,2.79436058 34.9293822,4.10061058 L35.0692436,4.37146873 L35.1996962,4.64652789 C35.4301799,5.15740571 35.6127768,5.71216577 35.7450056,6.43567011 L35.8121203,6.84779429 L35.8691551,7.29789132 L35.9160207,7.79046411 L35.9526274,8.33001558 C35.9578687,8.42410587 35.9626787,8.52034123 35.9670558,8.61881547 L35.9881065,9.23727791 L35.9986748,9.91397631 L35.9996685,10.092778 L35.9996685,10.092778 L36,25.7244288 L35.9947066,26.4319338 C35.9929446,26.5446856 35.9907439,26.6549171 35.9881065,26.7627221 L35.9670558,27.3811845 L35.935612,27.9459139 C35.9295102,28.0358079 35.9229792,28.1236506 35.9160207,28.2095359 L35.8691551,28.7021087 L35.8121203,29.1522057 L35.7450056,29.5643299 C35.6127768,30.2878342 35.4301799,30.8425943 35.1996962,31.3534721 L35.0692436,31.6285313 L34.9293822,31.8993894 C34.2307921,33.2056394 33.2056394,34.2307921 31.8993894,34.9293822 L31.6285313,35.0692436 L31.3534721,35.1996962 C30.8425943,35.4301799 30.2878342,35.6127768 29.5643299,35.7450056 L29.1522057,35.8121203 L28.7021087,35.8691551 L28.2095359,35.9160207 L27.6699844,35.9526274 C27.5758941,35.9578687 27.4796588,35.9626787 27.3811845,35.9670558 L26.7627221,35.9881065 L26.0860237,35.9986748 L25.907222,35.9996685 L25.907222,35.9996685 L10.2755712,36 L9.56806619,35.9947066 C9.45531439,35.9929446 9.3450829,35.9907439 9.23727791,35.9881065 L8.61881547,35.9670558 L8.05408608,35.935612 C7.9641921,35.9295102 7.87634938,35.9229792 7.79046411,35.9160207 L7.29789132,35.8691551 L6.84779429,35.8121203 L6.43567011,35.7450056 C5.71216577,35.6127768 5.15740571,35.4301799 4.64652789,35.1996962 L4.37146873,35.0692436 L4.10061058,34.9293822 C2.79436058,34.2307921 1.76920793,33.2056394 1.07061779,31.8993894 L0.930756442,31.6285313 L0.800303838,31.3534721 C0.569820092,30.8425943 0.38722322,30.2878342 0.254994425,29.5643299 L0.187879723,29.1522057 L0.130844863,28.7021087 L0.0839793256,28.2095359 L0.0473725906,27.6699844 C0.0421313394,27.5758941 0.0373212667,27.4796588 0.0329442365,27.3811845 L0.0118934801,26.7627221 L0.00132522614,26.0860237 L0.00132522614,9.91397631 L0.0118934801,9.23727791 L0.0329442365,8.61881547 L0.0643880153,8.05408608 C0.0704897592,7.9641921 0.0770208173,7.87634938 0.0839793256,7.79046411 L0.130844863,7.29789132 L0.187879723,6.84779429 L0.254994425,6.43567011 C0.38722322,5.71216577 0.569820092,5.15740571 0.800303838,4.64652789 L0.930756442,4.37146873 L1.07061779,4.10061058 C1.76920793,2.79436058 2.79436058,1.76920793 4.10061058,1.07061779 L4.37146873,0.930756442 L4.64652789,0.800303838 C5.15740571,0.569820092 5.71216577,0.38722322 6.43567011,0.254994425 L6.84779429,0.187879723 L7.29789132,0.130844863 L7.79046411,0.0839793256 L8.33001558,0.0473725906 C8.42410587,0.0421313394 8.52034123,0.0373212667 8.61881547,0.0329442365 L9.23727791,0.0118934801 L9.91397631,0.00132522612 L26.0860237,0.00132522612 Z M10.2755712,2 L9.62520864,2.00392662 C9.52195963,2.00524951 9.42121209,2.00691365 9.3228597,2.00892955 L8.76063629,2.02533022 C8.6714391,2.02879523 8.58442437,2.03263304 8.49948576,2.03685417 L8.01391689,2.06686484 C6.93508433,2.14801523 6.2214872,2.3084184 5.58133231,2.57693604 L5.31062597,2.69871843 C5.2213222,2.74157507 5.13266655,2.78672227 5.0438083,2.83424419 C4.08609524,3.34643473 3.34643473,4.08609524 2.83424419,5.0438083 C2.78672227,5.13266655 2.74157507,5.2213222 2.69871843,5.31062597 L2.57693604,5.58133231 C2.3084184,6.2214872 2.14801523,6.93508433 2.06686484,8.01391689 L2.03685417,8.49948576 L2.01604305,9.03488159 C2.01331311,9.12855005 2.01094545,9.2245073 2.00892955,9.3228597 L2.00097114,9.94256645 L2.00097114,26.0574336 L2.00892955,26.6771403 L2.02533022,27.2393637 C2.02879523,27.3285609 2.03263304,27.4155756 2.03685417,27.5005142 L2.06686484,27.9860831 C2.14801523,29.0649157 2.3084184,29.7785128 2.57693604,30.4186677 L2.69871843,30.689374 C2.74157507,30.7786778 2.78672227,30.8673335 2.83424419,30.9561917 C3.34643473,31.9139048 4.08609524,32.6535653 5.0438083,33.1657558 C5.13266655,33.2132777 5.2213222,33.2584249 5.31062597,33.3012816 L5.58133231,33.423064 C6.2214872,33.6915816 6.93508433,33.8519848 8.01391689,33.9331352 L8.49948576,33.9631458 L9.03488159,33.9839569 C9.12855005,33.9866869 9.2245073,33.9890545 9.3228597,33.9910704 L9.94256645,33.9990289 L26.0574336,33.9990289 L26.6771403,33.9910704 L27.2393637,33.9746698 C27.3285609,33.9712048 27.4155756,33.967367 27.5005142,33.9631458 L27.9860831,33.9331352 C29.0649157,33.8519848 29.7785128,33.6915816 30.4186677,33.423064 L30.689374,33.3012816 C30.7786778,33.2584249 30.8673335,33.2132777 30.9561917,33.1657558 C31.9139048,32.6535653 32.6535653,31.9139048 33.1657558,30.9561917 C33.2132777,30.8673335 33.2584249,30.7786778 33.3012816,30.689374 L33.423064,30.4186677 C33.6915816,29.7785128 33.8519848,29.0649157 33.9331352,27.9860831 L33.9631458,27.5005142 L33.9839569,26.9651184 C33.9866869,26.87145 33.9890545,26.7754927 33.9910704,26.6771403 L33.9990289,26.0574336 L33.9990289,9.94256645 L33.9910704,9.3228597 L33.9746698,8.76063629 C33.9712048,8.6714391 33.967367,8.58442437 33.9631458,8.49948576 L33.9331352,8.01391689 C33.8519848,6.93508433 33.6915816,6.2214872 33.423064,5.58133231 L33.3012816,5.31062597 C33.2584249,5.2213222 33.2132777,5.13266655 33.1657558,5.0438083 C32.6535653,4.08609524 31.9139048,3.34643473 30.9561917,2.83424419 C30.8673335,2.78672227 30.7786778,2.74157507 30.689374,2.69871843 L30.4186677,2.57693604 C29.7785128,2.3084184 29.0649157,2.14801523 27.9860831,2.06686484 L27.5005142,2.03685417 L26.9651184,2.01604305 C26.87145,2.01331311 26.7754927,2.01094545 26.6771403,2.00892955 L26.0574336,2.00097114 L10.2755712,2 Z M19,9 L19,17 L27,17 L27,19 L19,19 L19,27 L17,27 L17,19 L9,19 L9,17 L17,17 L17,9 L19,9 Z" id="create-app-icon"></path>
                </g>
            </g>
        </g>
    </g>
</svg>