<svg width="60" height="60" fill="none" xmlns="http://www.w3.org/2000/svg"><circle cx="30" cy="30" r="30" fill="url(#paint0_radial)"/><path d="M33.6853 26.5222c-.0412-.0713-.0629-.1522-.0629-.2346s.0217-.1633.0629-.2346l4.1525-7.3948 1.6543-2.9535c.7468-1.3332-.2168-2.9774-1.7449-2.9774h-14.204c-1.0952 0-2.1034.5968-2.6302 1.5571L17 21.4171h7.0054c.0838-.0001.1662.0222.2385.0646.0723.0425.1319.1035.1726.1768.0407.0733.061.1561.0589.2399-.0022.0839-.0268.1656-.0712.2366L17.061 33.7716h11.7304c.0703-.0015.1401.013.2042.0422.064.0292.1207.0724.1657.1265.0451.0541.0774.1176.0946.1858.0172.0683.0188.1396.0047.2085l-3.6458 18.1727L42.2542 29.939c.9736-1.3205.0308-3.1869-1.6097-3.1869h-6.5651c-.0798-.0016-.1579-.0236-.2269-.0638-.069-.0402-.1265-.0974-.1672-.1661z" fill="url(#paint1_linear)"/><defs><radialGradient id="paint0_radial" cx="0" cy="0" r="1" gradientUnits="userSpaceOnUse" gradientTransform="matrix(21.49994 52.99998 -76.8805 31.1873 20.5 3)"><stop stop-color="#FFA41D"/><stop offset="1" stop-color="#FF3D00"/></radialGradient><linearGradient id="paint1_linear" x1="30.8019" y1="12.7273" x2="30.8019" y2="52.5073" gradientUnits="userSpaceOnUse"><stop stop-color="#fff"/><stop offset="1" stop-color="#fff" stop-opacity=".7"/></linearGradient></defs></svg>