<svg width="60" height="60" fill="none" xmlns="http://www.w3.org/2000/svg"><circle cx="30" cy="30" r="30" fill="url(#paint0_radial)"/><path d="M29.9777 12.385C20.5953 12.385 13 19.8527 13 29.0775c0 2.1085.4021 4.1292 1.1616 6.062.6255 1.5375 1.4744 2.9871 2.5467 4.3049L14.251 45.155c-.134.3075-.0894.659.134.8786.1787.2196.4468.3514.7149.3514h.134l9.1143-1.5814c1.8318.6589 3.753.9664 5.6741.9664C39.4047 45.77 47 38.3023 47 29.0775c0-9.2248-7.6399-16.6925-17.0223-16.6925zm-6.0316 18.801c-.9829 0-1.8318-.7906-1.8318-1.801 0-1.0103.8042-1.801 1.8318-1.801s1.8318.7907 1.8318 1.801c0 1.0104-.8489 1.801-1.8318 1.801zm6.0316 0c-.983 0-1.8318-.7906-1.8318-1.801 0-1.0103.8042-1.801 1.8318-1.801s1.8318.7907 1.8318 1.801c0 1.0104-.8489 1.801-1.8318 1.801zm6.0315 0c-.9829 0-1.8318-.7906-1.8318-1.801 0-1.0103.8042-1.801 1.8318-1.801.9829 0 1.8318.7907 1.8318 1.801 0 1.0104-.8042 1.801-1.8318 1.801z" fill="url(#paint1_linear)"/><defs><radialGradient id="paint0_radial" cx="0" cy="0" r="1" gradientUnits="userSpaceOnUse" gradientTransform="matrix(21.49994 52.99998 -76.8805 31.1873 20.5 3)"><stop stop-color="#E35BFF"/><stop offset="1" stop-color="#9E23FF"/></radialGradient><linearGradient id="paint1_linear" x1="30.6345" y1="12.385" x2="30.3433" y2="46.388" gradientUnits="userSpaceOnUse"><stop stop-color="#fff"/><stop offset="1" stop-color="#fff" stop-opacity=".6"/></linearGradient></defs></svg>