<svg width="100" height="85" viewBox="0 0 100 85" fill="none" xmlns="http://www.w3.org/2000/svg">
<path d="M43.4587 1.05286L6.78081 16.4401C4.74114 17.2959 4.76227 20.2332 6.81473 21.058L43.6461 35.8662C46.8824 37.1674 50.4863 37.1674 53.7221 35.8662L90.554 21.058C92.6059 20.2332 92.6275 17.2959 90.5873 16.4401L53.91 1.05286C50.5636 -0.350952 46.8046 -0.350952 43.4587 1.05286Z" fill="#FCB400"/>
<path d="M52.6316 44.8847V81.7269C52.6316 83.4793 54.4353 84.6792 56.0981 84.0335L98.4009 67.9481C99.3667 67.5731 100 66.659 100 65.6416V28.7994C100 27.0471 98.1963 25.8472 96.5335 26.4929L54.2307 42.5782C53.2655 42.9533 52.6316 43.8673 52.6316 44.8847Z" fill="#18BFFF"/>
<path d="M43.3516 46.5932L31.0256 52.5208L29.7741 53.1233L3.75454 65.5407C2.10517 66.3332 0 65.136 0 63.3111V28.7935C0 28.1333 0.339889 27.5633 0.795701 27.134C0.985904 26.944 1.20143 26.7876 1.4254 26.6637C2.04721 26.2921 2.93408 26.1929 3.68814 26.49L43.1445 42.0606C45.1501 42.8531 45.3077 45.6521 43.3516 46.5932Z" fill="#F82B60"/>
<path d="M43.3265 46.6789L30.7773 52.6316L0 27.1374C0.193647 26.9466 0.413076 26.7896 0.641098 26.6652C1.27418 26.292 2.1771 26.1924 2.94481 26.4907L43.1157 42.1272C45.1576 42.923 45.318 45.7339 43.3265 46.6789Z" fill="black" fill-opacity="0.25"/>
</svg>
