<svg width="100" height="85" fill="none" xmlns="http://www.w3.org/2000/svg"><path d="M43.4587 1.05286L6.78081 16.4401c-2.03967.8558-2.01854 3.7931.03392 4.6179L43.6461 35.8662c3.2363 1.3012 6.8402 1.3012 10.076 0L90.554 21.058c2.0519-.8248 2.0735-3.7621.0333-4.6179L53.91 1.05286c-3.3464-1.403812-7.1054-1.403812-10.4513 0z" fill="#FCB400"/><path d="M52.6316 44.8847v36.8422c0 1.7524 1.8037 2.9523 3.4665 2.3066l42.3028-16.0854c.9658-.375 1.5991-1.2891 1.5991-2.3065V28.7994c0-1.7523-1.8037-2.9522-3.4665-2.3065L54.2307 42.5782c-.9652.3751-1.5991 1.2891-1.5991 2.3065z" fill="#18BFFF"/><path d="M43.3516 46.5932l-12.326 5.9276-1.2515.6025L3.75454 65.5407C2.10517 66.3332 0 65.136 0 63.3111V28.7935c0-.6602.339889-1.2302.795701-1.6595.190203-.19.405729-.3464.629699-.4703.62181-.3716 1.50868-.4708 2.26274-.1737L43.1445 42.0606c2.0056.7925 2.1632 3.5915.2071 4.5326z" fill="#F82B60"/><path d="M43.3265 46.6789l-12.5492 5.9527L0 27.1374c.193647-.1908.413076-.3478.641098-.4722.633082-.3732 1.536002-.4728 2.303712-.1745L43.1157 42.1272c2.0419.7958 2.2023 3.6067.2108 4.5517z" fill="#000" fill-opacity=".25"/></svg>