<?xml version="1.0" encoding="UTF-8"?>
<svg width="149px" height="38px" viewBox="0 0 149 38" version="1.1" xmlns="http://www.w3.org/2000/svg" xmlns:xlink="http://www.w3.org/1999/xlink">
    <title>logo-full</title>
    <defs>
        <linearGradient x1="50%" y1="0%" x2="50%" y2="100%" id="linearGradient-1">
            <stop stop-color="#00B2FF" offset="0%"></stop>
            <stop stop-color="#007AFF" offset="100%"></stop>
        </linearGradient>
        <filter id="filter-2">
            <feColorMatrix in="SourceGraphic" type="matrix" values="0 0 0 0 1.000000 0 0 0 0 1.000000 0 0 0 0 1.000000 0 0 0 1.000000 0"></feColorMatrix>
        </filter>
    </defs>
    <g id="logo-full" stroke="none" stroke-width="1" fill="none" fill-rule="evenodd">
        <g id="Group-2" transform="translate(1.000000, 1.000000)">
            <g id="Group-5">
                <circle id="Oval" fill="url(#linearGradient-1)" cx="18" cy="18" r="18"></circle>
                <g filter="url(#filter-2)" id="Group-4">
                    <g transform="translate(8.000000, 6.000000)">
                        <rect id="Rectangle" fill="#D8D8D8" x="0" y="2" width="9" height="9" rx="2"></rect>
                        <rect id="Rectangle-Copy-6" fill="#D8D8D8" x="0" y="13" width="9" height="9" rx="2"></rect>
                        <rect id="Rectangle-Copy-7" fill="#D8D8D8" x="11" y="13" width="9" height="9" rx="2"></rect>
                        <rect id="Rectangle-Copy-8" fill="#D8D8D8" transform="translate(15.500000, 6.500000) rotate(45.000000) translate(-15.500000, -6.500000) " x="11" y="2" width="9" height="9" rx="2"></rect>
                    </g>
                </g>
            </g>
            <g id="AppBuildy" transform="translate(44.330000, 9.830000)" fill-rule="nonzero">
                <path d="M3.278,16.17 L4.598,12.408 L10.626,12.408 L11.946,16.17 L15.224,16.17 L9.306,0.418 L5.896,0.418 L0,16.17 L3.278,16.17 Z M9.658,9.68 L5.544,9.68 L6.952,5.72 L7.524,3.828 L7.7,3.828 L8.272,5.72 L9.658,9.68 Z M19.266,20.922 L19.266,16.412 L19.09,14.828 L19.266,14.828 C19.5593333,15.312 20.003,15.7153333 20.597,16.038 C21.191,16.3606667 21.8693333,16.522 22.632,16.522 C23.644,16.522 24.5643333,16.269 25.393,15.763 C26.2216667,15.257 26.8706667,14.553 27.34,13.651 C27.8093333,12.749 28.044,11.7186667 28.044,10.56 C28.044,9.416 27.8093333,8.38933333 27.34,7.48 C26.8706667,6.57066667 26.2216667,5.863 25.393,5.357 C24.5643333,4.851 23.644,4.598 22.632,4.598 C21.8693333,4.598 21.1946667,4.763 20.608,5.093 C20.0213333,5.423 19.574,5.83 19.266,6.314 L19.266,6.314 L19.09,6.314 L19.09,4.95 L16.384,4.95 L16.384,20.922 L19.266,20.922 Z M22.126,13.86 C21.598,13.86 21.0993333,13.7206667 20.63,13.442 C20.1606667,13.1633333 19.7866667,12.7746667 19.508,12.276 C19.2293333,11.7773333 19.09,11.2053333 19.09,10.56 C19.09,9.91466667 19.2293333,9.34266667 19.508,8.844 C19.7866667,8.34533333 20.1606667,7.96033333 20.63,7.689 C21.0993333,7.41766667 21.598,7.282 22.126,7.282 C22.6686667,7.282 23.1746667,7.41766667 23.644,7.689 C24.1133333,7.96033333 24.4873333,8.34533333 24.766,8.844 C25.0446667,9.34266667 25.184,9.91466667 25.184,10.56 C25.184,11.2053333 25.0446667,11.7773333 24.766,12.276 C24.4873333,12.7746667 24.1133333,13.1633333 23.644,13.442 C23.1746667,13.7206667 22.6686667,13.86 22.126,13.86 Z M32.24,20.922 L32.24,16.412 L32.064,14.828 L32.24,14.828 C32.5333333,15.312 32.977,15.7153333 33.571,16.038 C34.165,16.3606667 34.8433333,16.522 35.606,16.522 C36.618,16.522 37.5383333,16.269 38.367,15.763 C39.1956667,15.257 39.8446667,14.553 40.314,13.651 C40.7833333,12.749 41.018,11.7186667 41.018,10.56 C41.018,9.416 40.7833333,8.38933333 40.314,7.48 C39.8446667,6.57066667 39.1956667,5.863 38.367,5.357 C37.5383333,4.851 36.618,4.598 35.606,4.598 C34.8433333,4.598 34.1686667,4.763 33.582,5.093 C32.9953333,5.423 32.548,5.83 32.24,6.314 L32.24,6.314 L32.064,6.314 L32.064,4.95 L29.358,4.95 L29.358,20.922 L32.24,20.922 Z M35.1,13.86 C34.572,13.86 34.0733333,13.7206667 33.604,13.442 C33.1346667,13.1633333 32.7606667,12.7746667 32.482,12.276 C32.2033333,11.7773333 32.064,11.2053333 32.064,10.56 C32.064,9.91466667 32.2033333,9.34266667 32.482,8.844 C32.7606667,8.34533333 33.1346667,7.96033333 33.604,7.689 C34.0733333,7.41766667 34.572,7.282 35.1,7.282 C35.6426667,7.282 36.1486667,7.41766667 36.618,7.689 C37.0873333,7.96033333 37.4613333,8.34533333 37.74,8.844 C38.0186667,9.34266667 38.158,9.91466667 38.158,10.56 C38.158,11.2053333 38.0186667,11.7773333 37.74,12.276 C37.4613333,12.7746667 37.0873333,13.1633333 36.618,13.442 C36.1486667,13.7206667 35.6426667,13.86 35.1,13.86 Z" id="App" fill="#007AFF"></path>
                <path d="M49.416,16.17 C50.3693333,16.17 51.2383333,15.9903333 52.023,15.631 C52.8076667,15.2716667 53.431,14.7583333 53.893,14.091 C54.355,13.4236667 54.586,12.6573333 54.586,11.792 C54.586,10.8973333 54.344,10.131 53.86,9.493 C53.376,8.855 52.7233333,8.38933333 51.902,8.096 L51.902,8.096 L51.902,7.92 C52.5326667,7.612 53.0423333,7.16833333 53.431,6.589 C53.8196667,6.00966667 54.014,5.324 54.014,4.532 C54.014,3.784 53.8013333,3.09466667 53.376,2.464 C52.9506667,1.83333333 52.3676667,1.33466667 51.627,0.968 C50.8863333,0.601333333 50.076,0.418 49.196,0.418 L49.196,0.418 L43.036,0.418 L43.036,16.17 L49.416,16.17 Z M48.976,6.842 L46.006,6.842 L46.006,3.08 L49.064,3.08 C49.68,3.08 50.175,3.25966667 50.549,3.619 C50.923,3.97833333 51.11,4.422 51.11,4.95 C51.11,5.49266667 50.9156667,5.94366667 50.527,6.303 C50.1383333,6.66233333 49.6213333,6.842 48.976,6.842 L48.976,6.842 Z M49.306,13.464 L46.006,13.464 L46.006,9.394 L49.218,9.394 C49.9806667,9.394 50.5673333,9.58466667 50.978,9.966 C51.3886667,10.3473333 51.594,10.8386667 51.594,11.44 C51.594,12.0413333 51.3923333,12.529 50.989,12.903 C50.5856667,13.277 50.0246667,13.464 49.306,13.464 L49.306,13.464 Z M60.322,16.522 C61.0553333,16.522 61.7263333,16.3643333 62.335,16.049 C62.9436667,15.7336667 63.4166667,15.3046667 63.754,14.762 L63.754,14.762 L63.93,14.762 L63.93,16.17 L66.636,16.17 L66.636,4.95 L63.754,4.95 L63.754,10.67 C63.754,11.594 63.512,12.3566667 63.028,12.958 C62.544,13.5593333 61.8913333,13.86 61.07,13.86 C60.4686667,13.86 59.9846667,13.6436667 59.618,13.211 C59.2513333,12.7783333 59.068,12.1806667 59.068,11.418 L59.068,11.418 L59.068,4.95 L56.186,4.95 L56.186,11.77 C56.186,13.266 56.538,14.432 57.242,15.268 C57.946,16.104 58.9726667,16.522 60.322,16.522 Z M70.48,3.718 C70.9933333,3.718 71.4296667,3.53466667 71.789,3.168 C72.1483333,2.80133333 72.328,2.36133333 72.328,1.848 C72.328,1.33466667 72.1483333,0.898333333 71.789,0.539 C71.4296667,0.179666667 70.9933333,0 70.48,0 C69.9666667,0 69.5266667,0.179666667 69.16,0.539 C68.7933333,0.898333333 68.61,1.33466667 68.61,1.848 C68.61,2.36133333 68.7933333,2.80133333 69.16,3.168 C69.5266667,3.53466667 69.9666667,3.718 70.48,3.718 Z M71.91,16.17 L71.91,4.95 L69.028,4.95 L69.028,16.17 L71.91,16.17 Z M77.206,16.17 L77.206,0.418 L74.324,0.418 L74.324,16.17 L77.206,16.17 Z M84.152,16.522 C84.9146667,16.522 85.593,16.3606667 86.187,16.038 C86.781,15.7153333 87.2246667,15.312 87.518,14.828 L87.518,14.828 L87.694,14.828 L87.694,16.17 L90.378,16.17 L90.378,0.418 L87.518,0.418 L87.518,4.73 L87.694,6.314 L87.518,6.314 C87.21,5.83 86.7626667,5.423 86.176,5.093 C85.5893333,4.763 84.9146667,4.598 84.152,4.598 C83.14,4.598 82.2196667,4.851 81.391,5.357 C80.5623333,5.863 79.9096667,6.57066667 79.433,7.48 C78.9563333,8.38933333 78.718,9.416 78.718,10.56 C78.718,11.7186667 78.9563333,12.749 79.433,13.651 C79.9096667,14.553 80.5623333,15.257 81.391,15.763 C82.2196667,16.269 83.14,16.522 84.152,16.522 Z M84.636,13.86 C84.108,13.86 83.6093333,13.7206667 83.14,13.442 C82.6706667,13.1633333 82.2966667,12.7746667 82.018,12.276 C81.7393333,11.7773333 81.6,11.2053333 81.6,10.56 C81.6,9.91466667 81.7393333,9.34266667 82.018,8.844 C82.2966667,8.34533333 82.6706667,7.96033333 83.14,7.689 C83.6093333,7.41766667 84.108,7.282 84.636,7.282 C85.1786667,7.282 85.6846667,7.41766667 86.154,7.689 C86.6233333,7.96033333 86.9973333,8.34533333 87.276,8.844 C87.5546667,9.34266667 87.694,9.91466667 87.694,10.56 C87.694,11.2053333 87.5546667,11.7773333 87.276,12.276 C86.9973333,12.7746667 86.6233333,13.1633333 86.154,13.442 C85.6846667,13.7206667 85.1786667,13.86 84.636,13.86 Z M96.818,20.922 L103.748,4.95 L100.536,4.95 L97.742,11.924 L97.566,11.924 L94.662,4.95 L91.384,4.95 L96.114,15.642 L93.716,20.922 L96.818,20.922 Z" id="Buildy" fill="#262626"></path>
            </g>
        </g>
    </g>
</svg>